# xmcd
# 
# Track frame offsets:
#     150
#     13631
#     30913
#     48520
#     66342
#     86575
#     108156
#     126895
#     142309
#     153551
# 
# Disc length: 2243
# 
# Revision: 0
# Processed by: cddbd v1.5.2PL0 Copyright (c) Steve Scherf et al.
# Submitted via: fre:ac v1.0.31
# 
DISCID=8408c10a
DTITLE=Avishai Cohen - Nitay Hershkovits - Duende
DYEAR=2012
DGENRE=Jazz
TTITLE0=Signature
TTITLE1=Criss Cross
TTITLE2=Four Verses - Continuation
TTITLE3=Soof
TTITLE4=All of You
TTITLE5=Central Park West
TTITLE6=Ann's Tune
TTITLE7=Calm
TTITLE8=Ballad for an Unborn
TTITLE9=End
EXTD=
EXTT0=
EXTT1=
EXTT2=
EXTT3=
EXTT4=
EXTT5=
EXTT6=
EXTT7=
EXTT8=
EXTT9=
PLAYORDER=
